name Walk7.mot
datacolumns 19
datarows 12
range 2.54100000 2.55200000
endheader

                time	   L_ground_force_vx	   L_ground_force_vy	   L_ground_force_vz	   L_ground_force_px	   L_ground_force_py	   L_ground_force_pz	   R_ground_force_vx	   R_ground_force_vy	   R_ground_force_vz	   R_ground_force_px	   R_ground_force_py	   R_ground_force_pz	   L_ground_torque_x	   L_ground_torque_y	   L_ground_torque_z	   R_ground_torque_x	   R_ground_torque_y	   R_ground_torque_z	
          2.54100000	          3.77016975	         37.32177624	         -6.34578633	          0.00323456	          0.00000000	          0.00020534	         -0.00000000	          0.00000000	          0.00000000	          0.00000000	          0.00000000	          0.00000000	          0.00000000	          0.03802518	          0.00000000	          0.00000000	          0.00000000	          0.00000000	
          2.54200000	          3.65605844	         41.52843489	         -6.93135160	         -0.01572667	          0.00000000	         -0.00209462	         -0.00000000	          0.00000000	          0.00000000	          0.00000000	          0.00000000	          0.00000000	          0.00000000	          0.03971924	          0.00000000	          0.00000000	          0.00000000	          0.00000000	
          2.54300000	          3.53116527	         45.89184179	         -7.52341947	         -0.03462485	          0.00000000	         -0.00439131	         -0.00000000	          0.00000000	          0.00000000	          0.00000000	          0.00000000	          0.00000000	          0.00000000	          0.04141473	          0.00000000	          0.00000000	          0.00000000	          0.00000000	
          2.54400000	          3.39468642	         50.40987622	         -8.12055965	         -0.05341357	          0.00000000	         -0.00667940	         -0.00000000	          0.00000000	          0.00000000	          0.00000000	          0.00000000	          0.00000000	          0.00000000	          0.04310461	          0.00000000	          0.00000000	          0.00000000	          0.00000000	
          2.54500000	          3.24576307	         55.07970008	         -8.72122439	         -0.07204586	          0.00000000	         -0.00895344	         -0.00000000	          0.00000000	          0.00000000	          0.00000000	          0.00000000	          0.00000000	          0.00000000	          0.04478118	          0.00000000	          0.00000000	          0.00000000	          0.00000000	
          2.54600000	          3.08348350	         59.89768738	         -9.32373920	         -0.09047392	          0.00000000	         -0.01120793	         -0.00000000	          0.00000000	          0.00000000	          0.00000000	          0.00000000	          0.00000000	          0.00000000	          0.04643609	          0.00000000	          0.00000000	          0.00000000	          0.00000000	
          2.54700000	          2.90688166	         64.85936729	         -9.92629833	         -0.10864926	          0.00000000	         -0.01343725	         -0.00000000	          0.00000000	          0.00000000	          0.00000000	          0.00000000	          0.00000000	          0.00000000	          0.04806028	          0.00000000	          0.00000000	          0.00000000	          0.00000000	
          2.54800000	          2.71492330	         69.95942284	        -10.52697709	         -0.12652423	          0.00000000	         -0.01563587	         -0.00000000	          0.00000000	          0.00000000	          0.00000000	          0.00000000	          0.00000000	          0.00000000	          0.04964394	          0.00000000	          0.00000000	          0.00000000	          0.00000000	
          2.54900000	          2.50648002	         75.19176206	        -11.12376204	         -0.14405438	          0.00000000	         -0.01779865	         -0.00000000	          0.00000000	          0.00000000	          0.00000000	          0.00000000	          0.00000000	          0.00000000	          0.05117645	          0.00000000	          0.00000000	          0.00000000	          0.00000000	
          2.55000000	          2.28030500	         80.54962618	        -11.71458342	         -0.16119989	          0.00000000	         -0.01992097	         -0.00000000	          0.00000000	          0.00000000	          0.00000000	          0.00000000	          0.00000000	          0.00000000	          0.05264620	          0.00000000	          0.00000000	          0.00000000	          0.00000000	
          2.55100000	          2.03501862	         86.02570853	        -12.29734015	         -0.17792579	          0.00000000	         -0.02199877	         -0.00000000	          0.00000000	          0.00000000	          0.00000000	          0.00000000	          0.00000000	          0.00000000	          0.05404043	          0.00000000	          0.00000000	          0.00000000	          0.00000000	
          2.55200000	          1.76910146	         91.61228984	        -12.86992076	         -0.19420158	          0.00000000	         -0.02402852	         -0.00000000	          0.00000000	          0.00000000	          0.00000000	          0.00000000	          0.00000000	          0.00000000	          0.05534499	          0.00000000	          0.00000000	          0.00000000	          0.00000000	
